<svg width="18" height="19" viewBox="0 0 18 19" fill="none" xmlns="http://www.w3.org/2000/svg">
<path fill-rule="evenodd" clip-rule="evenodd" d="M6.29354 19V19C4.63754 19 3.06354 18.334 1.86154 17.125C-0.526457 14.722 -0.624457 10.912 1.64254 8.63097L9.02854 1.20097C9.79754 0.426969 10.8355 -3.05176e-05 11.9505 -3.05176e-05C13.1435 -3.05176e-05 14.2775 0.478969 15.1425 1.34897C16.8635 3.07997 16.9295 5.83097 15.2885 7.48097L7.89354 14.91C7.41454 15.393 6.76954 15.658 6.07754 15.658V15.658C5.34654 15.658 4.65354 15.366 4.12754 14.837C3.07454 13.776 3.04154 12.085 4.05454 11.065L10.8795 4.20997C11.2695 3.81797 11.9015 3.81597 12.2935 4.20597C12.6845 4.59597 12.6865 5.22897 12.2965 5.61997L5.47254 12.476C5.23254 12.718 5.26554 13.145 5.54654 13.427C5.69254 13.574 5.88654 13.658 6.07754 13.658V13.658C6.18754 13.658 6.34554 13.631 6.47554 13.5L13.8705 6.07097C14.7375 5.19797 14.6725 3.71297 13.7245 2.75897C12.8175 1.84697 11.2785 1.77497 10.4465 2.61097L3.06054 10.041C1.56654 11.544 1.66454 14.09 3.28054 15.715C4.10354 16.544 5.17354 17 6.29354 17C7.29454 17 8.22254 16.622 8.90454 15.936L16.2915 8.50597C16.6805 8.11497 17.3135 8.11197 17.7055 8.50197C18.0965 8.89197 18.0985 9.52397 17.7095 9.91597L10.3225 17.346C9.26254 18.412 7.83154 19 6.29354 19" fill="#231F20"/>
</svg>
