<svg width="16" height="20" viewBox="0 0 16 20" fill="none" xmlns="http://www.w3.org/2000/svg">
<path fill-rule="evenodd" clip-rule="evenodd" d="M13.4443 18H2.5553C2.2493 18 2.0003 17.776 2.0003 17.5V2.5C2.0003 2.224 2.2493 2 2.5553 2H7.0003V6.15C7.0003 7.722 8.2173 9 9.7143 9H14.0003V17.5C14.0003 17.776 13.7503 18 13.4443 18ZM13.6493 7H9.7143C9.3203 7 9.0003 6.619 9.0003 6.15V2H9.1123L13.6493 7ZM15.7403 6.328L10.2963 0.328C10.1073 0.119 9.8383 0 9.5553 0H2.5553C1.1463 0 0.000297546 1.122 0.000297546 2.5V17.5C0.000297546 18.878 1.1463 20 2.5553 20H13.4443C14.8533 20 16.0003 18.878 16.0003 17.5V7C16.0003 6.751 15.9073 6.512 15.7403 6.328Z" fill="white"/>
</svg>
