<svg width="18" height="18" viewBox="0 0 18 18" fill="none" xmlns="http://www.w3.org/2000/svg">
<path fill-rule="evenodd" clip-rule="evenodd" d="M16 15.2559C16 15.6659 15.666 15.9999 15.256 15.9999H14V13.9999H16V15.2559ZM2 15.2559V13.9999H4V15.9999H2.744C2.334 15.9999 2 15.6659 2 15.2559ZM2.744 1.99988H4V3.99988H2V2.74388C2 2.33388 2.334 1.99988 2.744 1.99988ZM16 2.74388V3.99988H14V1.99988H15.256C15.666 1.99988 16 2.33388 16 2.74388ZM14 11.9999H16V9.99988H14V11.9999ZM14 7.99988H16V5.99988H14V7.99988ZM6 15.9999H12V1.99988H6V15.9999ZM2 11.9999H4V9.99988H2V11.9999ZM2 7.99988H4V5.99988H2V7.99988ZM15.256 -0.00012207H2.744C1.231 -0.00012207 0 1.23188 0 2.74388V15.2559C0 16.7689 1.231 17.9999 2.744 17.9999H15.256C16.769 17.9999 18 16.7689 18 15.2559V2.74388C18 1.23188 16.769 -0.00012207 15.256 -0.00012207Z" fill="white"/>
</svg>
