<svg width="16" height="16" viewBox="0 0 16 16" fill="none" xmlns="http://www.w3.org/2000/svg">
<path fill-rule="evenodd" clip-rule="evenodd" d="M10.3891 15.3333C10.3716 15.3333 10.355 15.3325 10.3383 15.3316C9.96164 15.3091 9.64748 15.0358 9.57248 14.6658L8.29081 8.35997C8.22414 8.03163 7.96831 7.7758 7.63998 7.70913L1.33414 6.42663C0.964143 6.35247 0.690809 6.0383 0.668309 5.66163C0.645809 5.28413 0.878309 4.93913 1.23664 4.8208L14.57 0.376633C14.8691 0.274966 15.1991 0.3533 15.4225 0.577466C15.6458 0.8008 15.7233 1.1308 15.6241 1.42997L11.1791 14.7633C11.0658 15.1058 10.7458 15.3333 10.3891 15.3333" fill="white"/>
</svg>
